<?xml version="1.0" encoding="utf-8"?>
<!-- Generator: Adobe Illustrator 24.0.0, SVG Export Plug-In . SVG Version: 6.00 Build 0)  -->
<svg version="1.1" id="Layer_1" xmlns="http://www.w3.org/2000/svg" xmlns:xlink="http://www.w3.org/1999/xlink" x="0px" y="0px"
	 viewBox="0 0 68 41.1" style="enable-background:new 0 0 68 41.1;" xml:space="preserve">
<path d="M41,18l19.2,7.4l-4.5,4.5l5.4,5.4l-1.4,1.4l-1.4,1.4l-5.4-5.4l-4.5,4.5L41,18 M41,15c-0.8,0-1.5,0.3-2.1,0.9
	c-0.8,0.8-1.1,2.1-0.7,3.2l7.4,19.2c0.4,0.9,1.2,1.6,2.2,1.9c0.2,0,0.4,0.1,0.6,0.1c0.8,0,1.6-0.3,2.1-0.9l2.3-2.3l3.3,3.3
	c0.6,0.6,1.4,0.9,2.1,0.9s1.5-0.3,2.1-0.9l1.4-1.4l1.4-1.4c1.2-1.2,1.2-3.1,0-4.2L60,29.8l2.3-2.3c0.7-0.7,1-1.8,0.8-2.7
	c-0.2-1-0.9-1.8-1.9-2.2l-19.2-7.4C41.8,15,41.4,15,41,15L41,15z M63,0H4.9C2.2,0,0,2.2,0,4.9v19.7c0,2.7,2.2,4.9,4.9,4.9h35.8
	l-1.2-3H4.9c-1.1,0-1.9-0.9-1.9-1.9V4.9C3,3.9,3.9,3,4.9,3H63C64.1,3,65,3.9,65,4.9v19.7c0,0.3-0.1,0.6-0.2,0.9c0,1.1-0.5,2.2-1.3,3
	l-1,1H63c2.7,0,4.9-2.2,4.9-4.9V4.9C68,2.2,65.8,0,63,0z"/>
</svg>
