<?xml version="1.0" encoding="utf-8"?>
<!-- Generator: Adobe Illustrator 24.0.0, SVG Export Plug-In . SVG Version: 6.00 Build 0)  -->
<svg version="1.1" id="Layer_1" xmlns="http://www.w3.org/2000/svg" xmlns:xlink="http://www.w3.org/1999/xlink" x="0px" y="0px"
	 viewBox="0 0 792 594" style="enable-background:new 0 0 792 594;" xml:space="preserve">
<path d="M0,0v594h792V0H0z M776.2,578.2H15.8V15.8h760.3L776.2,578.2L776.2,578.2z"/>
<rect x="534.6" y="396" width="99" height="39.6"/>
<rect x="415.8" y="396" width="99" height="39.6"/>
<path d="M673.2,118.8H118.8v356.4h554.4V118.8z M601.9,157.8l5.3-5.3l10.5,10.5l10.5-10.5l5.3,5.3l-10.5,10.5l10.5,10.5l-5.3,5.3
	l-10.5-10.5l-10.5,10.5l-5.3-5.3l10.5-10.5L601.9,157.8z M158.4,160.4h198v15.8h-198V160.4z M657.4,459.4H134.6V217.8h522.7V459.4z"
	/>
<rect x="198" y="316.8" width="396" height="15.8"/>
<rect x="198" y="277.2" width="198" height="15.8"/>
</svg>
