<?xml version="1.0" encoding="utf-8"?>
<!-- Generator: Adobe Illustrator 24.0.0, SVG Export Plug-In . SVG Version: 6.00 Build 0)  -->
<svg version="1.1" id="Layer_1" xmlns="http://www.w3.org/2000/svg" xmlns:xlink="http://www.w3.org/1999/xlink" x="0px" y="0px"
	 viewBox="0 0 82 82" style="enable-background:new 0 0 82 82;" xml:space="preserve">
<style type="text/css">
	.st0{fill:none;stroke:#000000;stroke-linecap:round;stroke-linejoin:round;stroke-miterlimit:10;}
</style>
<g>
	<g>
		<path class="st0" d="M81.5,73.5c0,4.4-3.6,8-8,8h-65c-4.4,0-8-3.6-8-8v-65c0-4.4,3.6-8,8-8h65c4.4,0,8,3.6,8,8V73.5z"/>
		<line class="st0" x1="1" y1="13.5" x2="81" y2="13.5"/>
		<line class="st0" x1="7" y1="7.5" x2="19" y2="7.5"/>
		<circle class="st0" cx="53.2" cy="7.5" r="2.4"/>
		<circle class="st0" cx="63.2" cy="7.5" r="2.4"/>
		<circle class="st0" cx="73.2" cy="7.5" r="2.4"/>
	</g>
</g>
<g>
	<path d="M47.5,75.5H5c-0.2,0-0.4-0.2-0.4-0.4V60.9c0-0.2,0.2-0.4,0.4-0.4h42.5c0.2,0,0.4,0.2,0.4,0.4V75
		C47.9,75.3,47.7,75.5,47.5,75.5z M5.5,74.6h41.6V61.3H5.5V74.6z"/>
</g>
<g>
	<path d="M26.3,68.4h-7.1c-0.2,0-0.4-0.2-0.4-0.4c0-0.2,0.2-0.4,0.4-0.4h7.1c0.2,0,0.4,0.2,0.4,0.4C26.7,68.2,26.5,68.4,26.3,68.4z"
		/>
</g>
<g>
	<path d="M40.4,68.4h-7.1c-0.2,0-0.4-0.2-0.4-0.4c0-0.2,0.2-0.4,0.4-0.4h7.1c0.2,0,0.4,0.2,0.4,0.4C40.9,68.2,40.7,68.4,40.4,68.4z"
		/>
</g>
<circle cx="12.1" cy="68" r="1.8"/>
</svg>
