<?xml version="1.0" encoding="utf-8"?>
<!-- Generator: Adobe Illustrator 24.0.0, SVG Export Plug-In . SVG Version: 6.00 Build 0)  -->
<svg version="1.1" id="Layer_1" xmlns="http://www.w3.org/2000/svg" xmlns:xlink="http://www.w3.org/1999/xlink" x="0px" y="0px"
	 viewBox="0 0 89 90" style="enable-background:new 0 0 89 90;" xml:space="preserve">
<path d="M77,0H12C5.4,0,0,5.4,0,12v66c0,6.6,5.4,12,12,12h65c6.6,0,12-5.4,12-12V12C89,5.4,83.6,0,77,0z M83,12v6H60V6h17
	C80.3,6,83,8.7,83,12z M33,18V6h23v12H33z M56,22v62H33V22H56z M12,6h17v12H6v-6C6,8.7,8.7,6,12,6z M6,78V22h23v62H12
	C8.7,84,6,81.3,6,78z M77,84H60V22h23v56C83,81.3,80.3,84,77,84z M10,35c0-1.1,0.9-2,2-2h11c1.1,0,2,0.9,2,2s-0.9,2-2,2H12
	C10.9,37,10,36.1,10,35z M25,47c0,1.1-0.9,2-2,2H12c-1.1,0-2-0.9-2-2s0.9-2,2-2h11C24.1,45,25,45.9,25,47z M25,59c0,1.1-0.9,2-2,2
	H12c-1.1,0-2-0.9-2-2s0.9-2,2-2h11C24.1,57,25,57.9,25,59z M25,71c0,1.1-0.9,2-2,2H12c-1.1,0-2-0.9-2-2s0.9-2,2-2h11
	C24.1,69,25,69.9,25,71z M37,35c0-1.1,0.9-2,2-2h11c1.1,0,2,0.9,2,2s-0.9,2-2,2H39C37.9,37,37,36.1,37,35z M37,47c0-1.1,0.9-2,2-2
	h11c1.1,0,2,0.9,2,2s-0.9,2-2,2H39C37.9,49,37,48.1,37,47z M37,59c0-1.1,0.9-2,2-2h11c1.1,0,2,0.9,2,2s-0.9,2-2,2H39
	C37.9,61,37,60.1,37,59z M52,71c0,1.1-0.9,2-2,2H39c-1.1,0-2-0.9-2-2s0.9-2,2-2h11C51.1,69,52,69.9,52,71z M79,35c0,1.1-0.9,2-2,2
	H66c-1.1,0-2-0.9-2-2s0.9-2,2-2h11C78.1,33,79,33.9,79,35z M79,47c0,1.1-0.9,2-2,2H66c-1.1,0-2-0.9-2-2s0.9-2,2-2h11
	C78.1,45,79,45.9,79,47z M79,59c0,1.1-0.9,2-2,2H66c-1.1,0-2-0.9-2-2s0.9-2,2-2h11C78.1,57,79,57.9,79,59z M79,71c0,1.1-0.9,2-2,2
	H66c-1.1,0-2-0.9-2-2s0.9-2,2-2h11C78.1,69,79,69.9,79,71z"/>
</svg>
