<?xml version="1.0" encoding="utf-8"?>
<!-- Generator: Adobe Illustrator 24.0.0, SVG Export Plug-In . SVG Version: 6.00 Build 0)  -->
<svg version="1.1" id="Layer_1" xmlns="http://www.w3.org/2000/svg" xmlns:xlink="http://www.w3.org/1999/xlink" x="0px" y="0px"
	 viewBox="0 0 90 40.6" style="enable-background:new 0 0 90 40.6;" xml:space="preserve">
<g>
	<path d="M81.2,0H8.8C3.9,0,0,3.9,0,8.8v23.1c0,4.8,3.9,8.8,8.8,8.8h72.5c4.8,0,8.8-3.9,8.8-8.8V8.8C90,3.9,86.1,0,81.2,0z
		 M87.1,31.9c0,1.6-0.7,3.1-1.7,4.1c-1.1,1.1-2.5,1.7-4.1,1.7H8.8c-1.6,0-3.1-0.7-4.1-1.7c-1.1-1.1-1.7-2.5-1.7-4.1V8.8
		c0-1.6,0.7-3.1,1.7-4.1c1.1-1.1,2.5-1.7,4.1-1.7h72.5c1.6,0,3.1,0.7,4.1,1.7c1.1,1.1,1.7,2.5,1.7,4.1V31.9z"/>
	<path d="M11.9,9.2c-0.8,0-1.5,0.7-1.5,1.5V30c0,0.8,0.6,1.5,1.5,1.5s1.5-0.7,1.5-1.5V10.6C13.4,9.8,12.7,9.2,11.9,9.2z"/>
</g>
</svg>
